<svg width="344" height="201" viewBox="0 0 344 201" fill="none" xmlns="http://www.w3.org/2000/svg">
<rect width="344" height="201" fill="#5636D3"/>
<path fill-rule="evenodd" clip-rule="evenodd" d="M185.165 66.5296C185.345 66.7851 185.5 67.0606 185.626 67.3529C193.066 69.3601 198.543 76.0023 198.543 83.8656C198.543 93.3135 190.636 101 180.918 101C175.844 101 171.266 98.9042 168.047 95.5572H155.829C153.199 95.5572 151.06 93.4773 151.06 90.9209C151.06 89.4527 151.766 88.1425 152.865 87.2924C151.766 86.4423 151.06 85.1322 151.06 83.664C151.06 82.1958 151.766 80.8856 152.865 80.0355C151.766 79.1854 151.06 77.8753 151.06 76.4071C151.06 74.9388 151.766 73.6287 152.865 72.7786C151.766 71.9285 151.06 70.6184 151.06 69.1502C151.06 66.5937 153.199 64.5138 155.829 64.5138H158.533C158.005 63.7678 157.695 62.8652 157.695 61.8933C157.695 60.9213 158.005 60.0188 158.533 59.2727H150.231C147.601 59.2727 145.462 57.1928 145.462 54.6364C145.462 52.0799 147.601 50 150.231 50H175.631C178.26 50 180.4 52.0799 180.4 54.6364C180.4 55.6083 180.09 56.5109 179.562 57.2569H187.864C190.494 57.2569 192.633 59.3368 192.633 61.8933C192.633 64.4497 190.494 66.5296 187.864 66.5296H185.165ZM190.56 61.8933C190.56 60.4483 189.351 59.2727 187.864 59.2727H162.464C160.978 59.2727 159.769 60.4483 159.769 61.8933C159.769 63.3382 160.978 64.5138 162.464 64.5138H181.229H187.864C189.351 64.5138 190.56 63.3382 190.56 61.8933ZM147.535 54.6364C147.535 56.0813 148.744 57.2569 150.231 57.2569H175.631C177.117 57.2569 178.326 56.0813 178.326 54.6364C178.326 53.1914 177.117 52.0158 175.631 52.0158H150.231C148.744 52.0158 147.535 53.1914 147.535 54.6364ZM181.229 66.5296H155.829C154.343 66.5296 153.133 67.7052 153.133 69.1502C153.133 70.5951 154.343 71.7707 155.829 71.7707H168.446C171.639 68.6593 176.051 66.7313 180.918 66.7313C181.419 66.7313 181.915 66.7529 182.405 66.7929C182.047 66.624 181.647 66.5296 181.229 66.5296ZM166.675 73.7865H155.829C154.343 73.7865 153.133 74.9621 153.133 76.4071C153.133 77.8521 154.343 79.0276 155.829 79.0276H164.01C164.588 77.1222 165.498 75.3541 166.675 73.7865ZM163.534 81.0434H155.829C154.343 81.0434 153.133 82.2189 153.133 83.664C153.133 85.109 154.343 86.2845 155.829 86.2845H163.47C163.355 85.494 163.294 84.6867 163.294 83.8656C163.294 82.9044 163.377 81.9619 163.534 81.0434ZM153.133 90.9209C153.133 92.3659 154.343 93.5414 155.829 93.5414H166.381C165.266 91.9636 164.416 90.1965 163.893 88.3003H155.829C154.343 88.3003 153.133 89.4758 153.133 90.9209ZM165.367 83.8656C165.367 92.202 172.343 98.9842 180.918 98.9842C189.493 98.9842 196.469 92.202 196.469 83.8656C196.469 75.5293 189.493 68.7471 180.918 68.7471C172.343 68.7471 165.367 75.5293 165.367 83.8656ZM178.274 80.4205C178.274 81.6451 179.458 82.6415 180.913 82.6415C183.692 82.6415 185.952 84.6843 185.952 87.1954C185.952 89.3329 184.314 91.1301 182.113 91.6179V92.1218C182.113 92.7659 181.576 93.2882 180.913 93.2882C180.251 93.2882 179.713 92.7659 179.713 92.1218V91.6179C177.512 91.1301 175.874 89.3329 175.874 87.1954C175.874 86.5513 176.411 86.029 177.074 86.029C177.736 86.029 178.274 86.5513 178.274 87.1954C178.274 88.4202 179.458 89.4165 180.913 89.4165C182.369 89.4165 183.553 88.4202 183.553 87.1954C183.553 85.9707 182.369 84.9743 180.913 84.9743C178.135 84.9743 175.874 82.9314 175.874 80.4205C175.874 78.283 177.512 76.4858 179.713 75.998V75.3913C179.713 74.7472 180.251 74.2249 180.913 74.2249C181.576 74.2249 182.113 74.7472 182.113 75.3913V75.998C184.314 76.4858 185.952 78.283 185.952 80.4205C185.952 81.0646 185.415 81.5869 184.753 81.5869C184.09 81.5869 183.553 81.0646 183.553 80.4205C183.553 79.1957 182.369 78.1994 180.913 78.1994C179.458 78.1994 178.274 79.1957 178.274 80.4205Z" fill="#FF872C"/>
<path d="M185.626 67.3529L185.396 67.4519L185.444 67.5628L185.561 67.5942L185.626 67.3529ZM185.165 66.5296V66.2796H184.683L184.961 66.6735L185.165 66.5296ZM168.047 95.5572L168.227 95.3839L168.153 95.3072H168.047V95.5572ZM152.865 87.2924L153.018 87.4902L153.274 87.2924L153.018 87.0947L152.865 87.2924ZM152.865 80.0355L153.018 80.2333L153.274 80.0355L153.018 79.8378L152.865 80.0355ZM152.865 72.7786L153.018 72.9764L153.274 72.7786L153.018 72.5809L152.865 72.7786ZM158.533 64.5138V64.7638H159.016L158.737 64.3694L158.533 64.5138ZM158.533 59.2727L158.737 59.4171L159.016 59.0227H158.533V59.2727ZM179.562 57.2569L179.358 57.1125L179.079 57.5069H179.562V57.2569ZM168.446 71.7707V72.0207H168.548L168.621 71.9497L168.446 71.7707ZM182.405 66.7929L182.385 67.042L182.512 66.5667L182.405 66.7929ZM166.675 73.7865L166.875 73.9366L167.175 73.5365H166.675V73.7865ZM164.01 79.0276V79.2776H164.195L164.249 79.1002L164.01 79.0276ZM163.534 81.0434L163.78 81.0856L163.83 80.7934H163.534V81.0434ZM163.47 86.2845V86.5345H163.759L163.717 86.2484L163.47 86.2845ZM166.381 93.5414V93.7914H166.863L166.585 93.3972L166.381 93.5414ZM163.893 88.3003L164.134 88.2338L164.084 88.0503H163.893V88.3003ZM182.113 91.6179L182.059 91.3738L181.863 91.4173V91.6179H182.113ZM179.713 91.6179H179.963V91.4173L179.767 91.3738L179.713 91.6179ZM179.713 75.998L179.767 76.2421L179.963 76.1986V75.998H179.713ZM182.113 75.998H181.863V76.1986L182.059 76.2421L182.113 75.998ZM185.855 67.2538C185.722 66.9457 185.559 66.6552 185.37 66.3857L184.961 66.6735C185.131 66.915 185.277 67.1754 185.396 67.4519L185.855 67.2538ZM198.793 83.8656C198.793 75.882 193.233 69.1462 185.691 67.1115L185.561 67.5942C192.899 69.574 198.293 76.1226 198.293 83.8656H198.793ZM180.918 101.25C190.768 101.25 198.793 93.4582 198.793 83.8656H198.293C198.293 93.1689 190.505 100.75 180.918 100.75V101.25ZM167.867 95.7305C171.131 99.1251 175.775 101.25 180.918 101.25V100.75C175.914 100.75 171.4 98.6833 168.227 95.3839L167.867 95.7305ZM155.829 95.8072H168.047V95.3072H155.829V95.8072ZM150.81 90.9209C150.81 93.622 153.068 95.8072 155.829 95.8072V95.3072C153.331 95.3072 151.31 93.3326 151.31 90.9209H150.81ZM152.712 87.0947C151.556 87.9888 150.81 89.37 150.81 90.9209H151.31C151.31 89.5353 151.976 88.2962 153.018 87.4902L152.712 87.0947ZM150.81 83.664C150.81 85.2148 151.556 86.5961 152.712 87.4902L153.018 87.0947C151.976 86.2886 151.31 85.0496 151.31 83.664H150.81ZM152.712 79.8378C151.556 80.7319 150.81 82.1131 150.81 83.664H151.31C151.31 82.2784 151.976 81.0393 153.018 80.2333L152.712 79.8378ZM150.81 76.4071C150.81 77.9579 151.556 79.3391 152.712 80.2333L153.018 79.8378C151.976 79.0317 151.31 77.7927 151.31 76.4071H150.81ZM152.712 72.5809C151.556 73.475 150.81 74.8562 150.81 76.4071H151.31C151.31 75.0215 151.976 73.7824 153.018 72.9764L152.712 72.5809ZM150.81 69.1502C150.81 70.701 151.556 72.0822 152.712 72.9764L153.018 72.5809C151.976 71.7748 151.31 70.5358 151.31 69.1502H150.81ZM155.829 64.2638C153.068 64.2638 150.81 66.449 150.81 69.1502H151.31C151.31 66.7384 153.331 64.7638 155.829 64.7638V64.2638ZM158.533 64.2638H155.829V64.7638H158.533V64.2638ZM157.445 61.8933C157.445 62.9193 157.772 63.8719 158.329 64.6582L158.737 64.3694C158.237 63.6636 157.945 62.811 157.945 61.8933H157.445ZM158.329 59.1283C157.772 59.9146 157.445 60.8672 157.445 61.8933H157.945C157.945 60.9755 158.237 60.123 158.737 59.4171L158.329 59.1283ZM150.231 59.5227H158.533V59.0227H150.231V59.5227ZM145.212 54.6364C145.212 57.3375 147.47 59.5227 150.231 59.5227V59.0227C147.732 59.0227 145.712 57.0481 145.712 54.6364H145.212ZM150.231 49.75C147.47 49.75 145.212 51.9352 145.212 54.6364H145.712C145.712 52.2246 147.732 50.25 150.231 50.25V49.75ZM175.631 49.75H150.231V50.25H175.631V49.75ZM180.65 54.6364C180.65 51.9352 178.392 49.75 175.631 49.75V50.25C178.129 50.25 180.15 52.2246 180.15 54.6364H180.65ZM179.766 57.4013C180.322 56.615 180.65 55.6624 180.65 54.6364H180.15C180.15 55.5541 179.857 56.4067 179.358 57.1125L179.766 57.4013ZM187.864 57.0069H179.562V57.5069H187.864V57.0069ZM192.883 61.8933C192.883 59.1921 190.625 57.0069 187.864 57.0069V57.5069C190.362 57.5069 192.383 59.4815 192.383 61.8933H192.883ZM187.864 66.7796C190.625 66.7796 192.883 64.5944 192.883 61.8933H192.383C192.383 64.305 190.362 66.2796 187.864 66.2796V66.7796ZM185.165 66.7796H187.864V66.2796H185.165V66.7796ZM187.864 59.5227C189.219 59.5227 190.31 60.593 190.31 61.8933H190.81C190.81 60.3037 189.482 59.0227 187.864 59.0227V59.5227ZM162.464 59.5227H187.864V59.0227H162.464V59.5227ZM160.019 61.8933C160.019 60.593 161.109 59.5227 162.464 59.5227V59.0227C160.846 59.0227 159.519 60.3037 159.519 61.8933H160.019ZM162.464 64.2638C161.109 64.2638 160.019 63.1935 160.019 61.8933H159.519C159.519 63.4829 160.846 64.7638 162.464 64.7638V64.2638ZM181.229 64.2638H162.464V64.7638H181.229V64.2638ZM187.864 64.2638H181.229V64.7638H187.864V64.2638ZM190.31 61.8933C190.31 63.1935 189.219 64.2638 187.864 64.2638V64.7638C189.482 64.7638 190.81 63.4829 190.81 61.8933H190.31ZM150.231 57.0069C148.876 57.0069 147.785 55.9366 147.785 54.6364H147.285C147.285 56.226 148.613 57.5069 150.231 57.5069V57.0069ZM175.631 57.0069H150.231V57.5069H175.631V57.0069ZM178.076 54.6364C178.076 55.9366 176.986 57.0069 175.631 57.0069V57.5069C177.248 57.5069 178.576 56.226 178.576 54.6364H178.076ZM175.631 52.2658C176.986 52.2658 178.076 53.3361 178.076 54.6364H178.576C178.576 53.0468 177.248 51.7658 175.631 51.7658V52.2658ZM150.231 52.2658H175.631V51.7658H150.231V52.2658ZM147.785 54.6364C147.785 53.3361 148.876 52.2658 150.231 52.2658V51.7658C148.613 51.7658 147.285 53.0468 147.285 54.6364H147.785ZM155.829 66.7796H181.229V66.2796H155.829V66.7796ZM153.383 69.1502C153.383 67.8499 154.474 66.7796 155.829 66.7796V66.2796C154.211 66.2796 152.883 67.5606 152.883 69.1502H153.383ZM155.829 71.5207C154.474 71.5207 153.383 70.4504 153.383 69.1502H152.883C152.883 70.7398 154.211 72.0207 155.829 72.0207V71.5207ZM168.446 71.5207H155.829V72.0207H168.446V71.5207ZM180.918 66.4813C175.984 66.4813 171.51 68.4361 168.272 71.5917L168.621 71.9497C171.768 68.8826 176.118 66.9813 180.918 66.9813V66.4813ZM182.426 66.5437C181.929 66.5032 181.426 66.4813 180.918 66.4813V66.9813C181.412 66.9813 181.901 67.0026 182.385 67.042L182.426 66.5437ZM181.229 66.7796C181.609 66.7796 181.972 66.8654 182.299 67.0191L182.512 66.5667C182.121 66.3825 181.685 66.2796 181.229 66.2796V66.7796ZM155.829 74.0365H166.675V73.5365H155.829V74.0365ZM153.383 76.4071C153.383 75.1068 154.474 74.0365 155.829 74.0365V73.5365C154.211 73.5365 152.883 74.8175 152.883 76.4071H153.383ZM155.829 78.7776C154.474 78.7776 153.383 77.7074 153.383 76.4071H152.883C152.883 77.9968 154.211 79.2776 155.829 79.2776V78.7776ZM164.01 78.7776H155.829V79.2776H164.01V78.7776ZM166.475 73.6364C165.281 75.2267 164.357 77.0209 163.771 78.9551L164.249 79.1002C164.818 77.2234 165.715 75.4815 166.875 73.9366L166.475 73.6364ZM155.829 81.2934H163.534V80.7934H155.829V81.2934ZM153.383 83.664C153.383 82.3636 154.474 81.2934 155.829 81.2934V80.7934C154.211 80.7934 152.883 82.0743 152.883 83.664H153.383ZM155.829 86.0345C154.474 86.0345 153.383 84.9643 153.383 83.664H152.883C152.883 85.2537 154.211 86.5345 155.829 86.5345V86.0345ZM163.47 86.0345H155.829V86.5345H163.47V86.0345ZM163.044 83.8656C163.044 84.6991 163.106 85.5185 163.223 86.3206L163.717 86.2484C163.604 85.4695 163.544 84.6743 163.544 83.8656H163.044ZM163.288 81.0012C163.128 81.9333 163.044 82.89 163.044 83.8656H163.544C163.544 82.9189 163.625 81.9905 163.78 81.0856L163.288 81.0012ZM155.829 93.2914C154.474 93.2914 153.383 92.2212 153.383 90.9209H152.883C152.883 92.5106 154.211 93.7914 155.829 93.7914V93.2914ZM166.381 93.2914H155.829V93.7914H166.381V93.2914ZM163.652 88.3668C164.183 90.2916 165.046 92.0849 166.177 93.6857L166.585 93.3972C165.487 91.8424 164.65 90.1014 164.134 88.2338L163.652 88.3668ZM155.829 88.5503H163.893V88.0503H155.829V88.5503ZM153.383 90.9209C153.383 89.6205 154.474 88.5503 155.829 88.5503V88.0503C154.211 88.0503 152.883 89.3312 152.883 90.9209H153.383ZM180.918 98.7342C172.475 98.7342 165.617 92.0573 165.617 83.8656H165.117C165.117 92.3467 172.212 99.2342 180.918 99.2342V98.7342ZM196.219 83.8656C196.219 92.0573 189.362 98.7342 180.918 98.7342V99.2342C189.624 99.2342 196.719 92.3467 196.719 83.8656H196.219ZM180.918 68.9971C189.362 68.9971 196.219 75.674 196.219 83.8656H196.719C196.719 75.3846 189.624 68.4971 180.918 68.4971V68.9971ZM165.617 83.8656C165.617 75.674 172.475 68.9971 180.918 68.9971V68.4971C172.212 68.4971 165.117 75.3846 165.117 83.8656H165.617ZM180.913 82.3915C179.554 82.3915 178.524 81.4683 178.524 80.4205H178.024C178.024 81.8219 179.362 82.8915 180.913 82.8915V82.3915ZM186.202 87.1954C186.202 84.5231 183.805 82.3915 180.913 82.3915V82.8915C183.578 82.8915 185.702 84.8456 185.702 87.1954H186.202ZM182.167 91.862C184.463 91.3532 186.202 89.4691 186.202 87.1954H185.702C185.702 89.1967 184.165 90.9071 182.059 91.3738L182.167 91.862ZM182.363 92.1218V91.6179H181.863V92.1218H182.363ZM180.913 93.5382C181.707 93.5382 182.363 92.9106 182.363 92.1218H181.863C181.863 92.6212 181.444 93.0382 180.913 93.0382V93.5382ZM179.463 92.1218C179.463 92.9106 180.119 93.5382 180.913 93.5382V93.0382C180.382 93.0382 179.963 92.6212 179.963 92.1218H179.463ZM179.463 91.6179V92.1218H179.963V91.6179H179.463ZM175.624 87.1954C175.624 89.4691 177.363 91.3532 179.659 91.862L179.767 91.3738C177.661 90.9071 176.124 89.1967 176.124 87.1954H175.624ZM177.074 85.779C176.28 85.779 175.624 86.4066 175.624 87.1954H176.124C176.124 86.696 176.543 86.279 177.074 86.279V85.779ZM178.524 87.1954C178.524 86.4066 177.868 85.779 177.074 85.779V86.279C177.605 86.279 178.024 86.696 178.024 87.1954H178.524ZM180.913 89.1665C179.554 89.1665 178.524 88.2434 178.524 87.1954H178.024C178.024 88.5969 179.362 89.6665 180.913 89.6665V89.1665ZM183.303 87.1954C183.303 88.2434 182.273 89.1665 180.913 89.1665V89.6665C182.465 89.6665 183.803 88.5969 183.803 87.1954H183.303ZM180.913 85.2243C182.273 85.2243 183.303 86.1474 183.303 87.1954H183.803C183.803 85.7939 182.465 84.7243 180.913 84.7243V85.2243ZM175.624 80.4205C175.624 83.0927 178.021 85.2243 180.913 85.2243V84.7243C178.248 84.7243 176.124 82.7702 176.124 80.4205H175.624ZM179.659 75.7539C177.363 76.2627 175.624 78.1468 175.624 80.4205H176.124C176.124 78.4192 177.661 76.7088 179.767 76.2421L179.659 75.7539ZM179.463 75.3913V75.998H179.963V75.3913H179.463ZM180.913 73.9749C180.119 73.9749 179.463 74.6026 179.463 75.3913H179.963C179.963 74.8919 180.382 74.4749 180.913 74.4749V73.9749ZM182.363 75.3913C182.363 74.6026 181.707 73.9749 180.913 73.9749V74.4749C181.444 74.4749 181.863 74.8919 181.863 75.3913H182.363ZM182.363 75.998V75.3913H181.863V75.998H182.363ZM186.202 80.4205C186.202 78.1468 184.463 76.2627 182.167 75.7539L182.059 76.2421C184.165 76.7088 185.702 78.4192 185.702 80.4205H186.202ZM184.753 81.8369C185.546 81.8369 186.202 81.2092 186.202 80.4205H185.702C185.702 80.9199 185.284 81.3369 184.753 81.3369V81.8369ZM183.303 80.4205C183.303 81.2092 183.959 81.8369 184.753 81.8369V81.3369C184.221 81.3369 183.803 80.9199 183.803 80.4205H183.303ZM180.913 78.4494C182.273 78.4494 183.303 79.3725 183.303 80.4205H183.803C183.803 79.019 182.465 77.9494 180.913 77.9494V78.4494ZM178.524 80.4205C178.524 79.3725 179.554 78.4494 180.913 78.4494V77.9494C179.362 77.9494 178.024 79.019 178.024 80.4205H178.524Z" fill="#FF872C"/>
<path d="M82 134.994C82 140.289 85.6401 143.871 90.3754 143.871C93.5966 143.871 95.8838 142.22 96.9468 140.382V143.964C96.9468 147.608 94.5952 149.539 91.4706 149.539C88.5714 149.539 86.4776 148.138 85.8333 146.082H82.9342C83.514 149.726 86.8319 152 91.4706 152C96.6569 152 99.9104 148.667 99.9104 143.964V126.522H96.9468V129.637C95.916 127.799 93.5966 126.242 90.3754 126.242C85.6401 126.242 82 129.668 82 134.994ZM96.9468 135.025C96.9468 139.043 94.1765 141.379 90.9552 141.379C87.7339 141.379 84.9958 139.012 84.9958 134.994C84.9958 130.976 87.7339 128.702 90.9552 128.702C94.1765 128.702 96.9468 131.07 96.9468 135.025Z" fill="white"/>
<path d="M121.615 135.025C121.615 129.637 117.717 126.242 112.692 126.242C107.699 126.242 103.769 129.637 103.769 135.025C103.769 140.445 107.57 143.871 112.563 143.871C117.588 143.871 121.615 140.445 121.615 135.025ZM106.765 135.025C106.765 130.727 109.567 128.702 112.66 128.702C115.688 128.702 118.619 130.727 118.619 135.025C118.619 139.354 115.623 141.379 112.563 141.379C109.503 141.379 106.765 139.354 106.765 135.025Z" fill="white"/>
<path d="M127.155 143.591H130.859V129.326H134.145V126.429H130.859V125.214C130.859 123.252 131.632 122.505 133.887 122.505V119.546C129.249 119.546 127.155 121.259 127.155 125.214V126.429H125.061V129.326H127.155V143.591Z" fill="white"/>
<path d="M137.4 143.591H141.072V126.429H137.4V143.591ZM139.268 124.155C140.556 124.155 141.587 123.159 141.587 121.882C141.587 120.605 140.556 119.608 139.268 119.608C137.947 119.608 136.916 120.605 136.916 121.882C136.916 123.159 137.947 124.155 139.268 124.155Z" fill="white"/>
<path d="M158.488 143.591H162.128V133.468C162.128 128.672 159.004 126.149 154.848 126.149C152.722 126.149 150.757 126.99 149.565 128.391V126.429H145.893V143.591H149.565V133.998C149.565 130.852 151.337 129.232 154.043 129.232C156.717 129.232 158.488 130.852 158.488 133.998V143.591Z" fill="white"/>
<path d="M165.589 134.932C165.589 140.227 169.293 143.871 173.9 143.871C176.863 143.871 178.989 142.501 180.117 141.037V143.591H183.821V126.429H180.117V128.921C179.021 127.519 176.96 126.149 173.964 126.149C169.293 126.149 165.589 129.637 165.589 134.932ZM180.117 134.994C180.117 138.701 177.507 140.787 174.737 140.787C171.999 140.787 169.358 138.638 169.358 134.932C169.358 131.226 171.999 129.232 174.737 129.232C177.507 129.232 180.117 131.319 180.117 134.994Z" fill="white"/>
<path d="M201.24 143.591H204.88V133.468C204.88 128.672 201.755 126.149 197.6 126.149C195.474 126.149 193.509 126.99 192.317 128.391V126.429H188.644V143.591H192.317V133.998C192.317 130.852 194.088 129.232 196.794 129.232C199.468 129.232 201.24 130.852 201.24 133.998V143.591Z" fill="white"/>
<path d="M208.34 134.994C208.34 140.383 211.948 143.871 217.037 143.871C221.386 143.871 224.221 141.535 225.219 138.171H221.257C220.581 139.947 219.228 140.881 217.037 140.881C214.074 140.881 212.109 138.763 212.109 134.994C212.109 131.257 214.074 129.139 217.037 129.139C219.228 129.139 220.645 130.198 221.257 131.848H225.219C224.221 128.235 221.386 126.149 217.037 126.149C211.948 126.149 208.34 129.637 208.34 134.994Z" fill="white"/>
<path d="M236.352 129.139C239.091 129.139 241.249 130.821 241.313 133.468H231.488C231.875 130.758 233.872 129.139 236.352 129.139ZM244.663 138.483H240.701C240.025 139.822 238.768 140.881 236.514 140.881C233.808 140.881 231.714 139.168 231.456 136.334H245.018C245.114 135.742 245.147 135.181 245.147 134.589C245.147 129.544 241.571 126.149 236.514 126.149C231.263 126.149 227.655 129.606 227.655 134.994C227.655 140.383 231.424 143.871 236.514 143.871C240.862 143.871 243.665 141.473 244.663 138.483Z" fill="white"/>
<path d="M262 138.794C261.807 132.596 251.789 134.527 251.789 131.07C251.789 129.917 252.819 129.139 254.784 129.139C256.782 129.139 257.973 130.167 258.102 131.662H261.775C261.581 128.235 258.94 126.149 254.913 126.149C250.725 126.149 248.084 128.36 248.084 131.101C248.084 137.393 258.392 135.461 258.392 138.825C258.392 140.009 257.265 140.881 255.139 140.881C253.109 140.881 251.724 139.729 251.595 138.327H247.794C247.955 141.442 250.951 143.871 255.203 143.871C259.391 143.871 262 141.691 262 138.794Z" fill="white"/>
</svg>
